:version 1.10
:name ASF
:units
  mass 1
  length 1
  angle deg
:documentation
  ASF file generated by Kaydara
:root
  axis xyz
  order  tx ty tz rx ry rz
  position 0 0 0
  orientation 0 0 0
:bonedata
  begin
    id 1
    name lfemurDummy
    direction 0.61522 -0.761478 0.204097
    length 5.68318
    axis 0 -0 0 xyz
  end
  begin
    id 2
    name lfemur
    direction 0.34202 -0.939693 -5.84747e-008
    length 16.9147
    axis 0 -0 20 xyz
    dof rx ry rz
    limits( -inf , inf )
( -inf , inf )
( -inf , inf )

  end
  begin
    id 3
    name ltibia
    direction 0.34202 -0.939693 1.20839e-009
    length 18.0532
    axis 0 -0 20 xyz
    dof rz ry rx
    limits( -inf , inf )
( -inf , inf )
( -inf , inf )

  end
  begin
    id 4
    name lfoot
    direction 0.0841971 -0.23133 0.969225
    length 5.23822
    axis -90 7.62852e-016 20 xyz
    dof ry rx rz
    limits( -inf , inf )
( -inf , inf )
( -inf , inf )

  end
  begin
    id 5
    name ltoes
    direction 0 0 0
    length 0
    axis 0 0 0 xyz
    dof rz ry rx
    limits( -inf , inf )
( -inf , inf )
( -inf , inf )

  end
  begin
    id 6
    name rfemurDummy
    direction -0.625247 -0.75382 0.202044
    length 5.74091
    axis 0 -0 0 xyz
  end
  begin
    id 7
    name rfemur
    direction -0.34202 -0.939693 -1.47013e-008
    length 16.4922
    axis 0 -0 -20 xyz
    dof rx ry rz
    limits( -inf , inf )
( -inf , inf )
( -inf , inf )

  end
  begin
    id 8
    name rtibia
    direction -0.34202 -0.939693 -7.74345e-010
    length 18.2421
    axis 0 -0 -20 xyz
    dof rz ry rx
    limits( -inf , inf )
( -inf , inf )
( -inf , inf )

  end
  begin
    id 9
    name rfoot
    direction -0.124331 -0.341598 0.931586
    length 5.45787
    axis -90 -7.62852e-016 -20 xyz
    dof ry rx rz
    limits( -inf , inf )
( -inf , inf )
( -inf , inf )

  end
  begin
    id 10
    name rtoes
    direction 0 0 0
    length 0
    axis 0 0 0 xyz
    dof rz ry rx
    limits( -inf , inf )
( -inf , inf )
( -inf , inf )

  end
  begin
    id 11
    name lowerbackDummy
    direction 0 0 0
    length 0
    axis 0 -0 0 xyz
  end
  begin
    id 12
    name lowerback
    direction -0.0218484 0.994884 -0.0986304
    length 4.45607
    axis 0 -0 0 xyz
    dof rx ry rz
    limits( -inf , inf )
( -inf , inf )
( -inf , inf )

  end
  begin
    id 13
    name upperback
    direction -0.00973057 0.999717 -0.0217111
    length 4.47449
    axis 0 -0 0 xyz
    dof rx ry rz
    limits( -inf , inf )
( -inf , inf )
( -inf , inf )

  end
  begin
    id 14
    name thorax
    direction -0.000928171 0.999699 0.0245198
    length 4.50973
    axis 0 -0 0 xyz
    dof rx ry rz
    limits( -inf , inf )
( -inf , inf )
( -inf , inf )

  end
  begin
    id 15
    name rclavicle
    direction -0.9009 0.425937 -0.0834055
    length 7.28587
    axis 0 -0 0 xyz
    dof rx ry rz
    limits( -inf , inf )
( -inf , inf )
( -inf , inf )

  end
  begin
    id 16
    name rhumerus
    direction -1 -2.23604e-007 -1.42637e-007
    length 13.5704
    axis 180 30 90 xyz
    dof rx ry rz
    limits( -inf , inf )
( -inf , inf )
( -inf , inf )

  end
  begin
    id 17
    name rradius
    direction -1 5.68281e-008 -4.4952e-007
    length 8.06782
    axis 180 30 90 xyz
    dof rz ry rx
    limits( -inf , inf )
( -inf , inf )
( -inf , inf )

  end
  begin
    id 18
    name rwrist
    direction -1 1.51393e-007 1.38143e-007
    length 4.03391
    axis -90 -90 0 xyz
    dof rz rx ry
    limits( -inf , inf )
( -inf , inf )
( -inf , inf )

  end
  begin
    id 19
    name rthumb
    direction 0 0 0
    length 0
    axis 0 0 0 xyz
    dof ry rx rz
    limits( -inf , inf )
( -inf , inf )
( -inf , inf )

  end
  begin
    id 20
    name rhand
    direction -1 -3.34077e-007 -5.59631e-007
    length 1.29744
    axis -90 -90 0 xyz
    dof ry rx rz
    limits( -inf , inf )
( -inf , inf )
( -inf , inf )

  end
  begin
    id 21
    name rfingers
    direction 0 0 0
    length 0
    axis 0 0 0 xyz
    dof rz ry rx
    limits( -inf , inf )
( -inf , inf )
( -inf , inf )

  end
  begin
    id 22
    name lclavicle
    direction 0.940017 0.332249 -0.0773232
    length 8.29589
    axis 0 -0 0 xyz
    dof rx ry rz
    limits( -inf , inf )
( -inf , inf )
( -inf , inf )

  end
  begin
    id 23
    name lhumerus
    direction 1 7.41158e-008 -1.44768e-008
    length 12.0042
    axis 180 -30 -90 xyz
    dof rx ry rz
    limits( -inf , inf )
( -inf , inf )
( -inf , inf )

  end
  begin
    id 24
    name lradius
    direction 1 -1.32972e-007 3.10821e-007
    length 8.1902
    axis 180 -30 -90 xyz
    dof rz ry rx
    limits( -inf , inf )
( -inf , inf )
( -inf , inf )

  end
  begin
    id 25
    name lwrist
    direction 1 3.08957e-007 4.01394e-007
    length 4.09509
    axis -90 90 0 xyz
    dof rz rx ry
    limits( -inf , inf )
( -inf , inf )
( -inf , inf )

  end
  begin
    id 26
    name lthumb
    direction 0 0 0
    length 0
    axis 0 0 0 xyz
    dof ry rx rz
    limits( -inf , inf )
( -inf , inf )
( -inf , inf )

  end
  begin
    id 27
    name lhand
    direction 1 -1.64125e-007 -6.99514e-007
    length 1.37229
    axis -90 90 0 xyz
    dof ry rx rz
    limits( -inf , inf )
( -inf , inf )
( -inf , inf )

  end
  begin
    id 28
    name lfingers
    direction 0 0 0
    length 0
    axis 0 0 0 xyz
    dof rz ry rx
    limits( -inf , inf )
( -inf , inf )
( -inf , inf )

  end
  begin
    id 29
    name lowerneck
    direction -0.030798 0.998024 0.0547665
    length 3.93918
    axis 0 -0 0 xyz
    dof rx ry rz
    limits( -inf , inf )
( -inf , inf )
( -inf , inf )

  end
  begin
    id 30
    name upperneck
    direction 0.0531588 0.996611 -0.0627736
    length 3.95491
    axis 0 -0 0 xyz
    dof rx ry rz
    limits( -inf , inf )
( -inf , inf )
( -inf , inf )

  end
  begin
    id 31
    name head
    direction 0 0 0
    length 0
    axis 0 0 0 xyz
    dof rx ry rz
    limits( -inf , inf )
( -inf , inf )
( -inf , inf )

  end
:hierarchy
  begin
    root lfemurDummy rfemurDummy lowerbackDummy
    lfemurDummy lfemur
    lfemur ltibia
    ltibia lfoot
    lfoot ltoes
    rfemurDummy rfemur
    rfemur rtibia
    rtibia rfoot
    rfoot rtoes
    lowerbackDummy lowerback
    lowerback upperback
    upperback thorax
    thorax rclavicle lclavicle lowerneck
    rclavicle rhumerus
    rhumerus rradius
    rradius rwrist
    rwrist rthumb rhand
    rhand rfingers
    lclavicle lhumerus
    lhumerus lradius
    lradius lwrist
    lwrist lthumb lhand
    lhand lfingers
    lowerneck upperneck
    upperneck head
  end

:SAMPLES-PER-SECOND 30
:FULLY-SPECIFIED
:DEGREES
94
root  7.532221877 38.73466732 -0.1965273318 178.992981 -65.97429657 172.6220093
lowerback  13.3441 3.606189966 -0.1804870069
upperback  3.585570097 4.630010128 1.685879946
thorax  -3.843120098 2.208549976 1.105980039
lowerneck  -8.046330452 8.60997963 0.3682540059
upperneck  18.62809944 11.26920033 1.263409972
head  6.95968008 5.446040154 1.264150023
lclavicle  0 -9.442270133e-015 7.951389973e-016
lhumerus  -10.8671999 -6.792510033 70.79750061
lradius  2.423503702e-031 -2.568165463e-031 133.3399963
lwrist  -7.062250077e-031 -1.765562519e-031 14.4520998
lhand  -1.496451383e-031 -27.76390076 20.11240005
lfingers  90 7.125020027 -90
lthumb  89.89689403 5.08795885 91.16245106
rclavicle  0 -9.442270133e-015 7.951389973e-016
rhumerus  10.2098999 34.93220139 -78.18740082
rradius  -1.767110072e-031 3.057149985e-031 120.0289993
rwrist  0 -0 -8.230939865
rhand  -7.920061211e-032 -33.2840004 9.303460121
rfingers  -90 -7.125020027 -90
rthumb  -92.93752616 -24.25625642 -97.11982154
rfemur  -15.34070015 6.536719799 -0.3539679945
rtibia  -0 0 66.94989777
rfoot  -4.55003166e-032 -14.05039978 0.6181359887
rtoes  5.373923086 19.29304026 -105.8922705
lfemur  -22.39559937 4.702250004 -0.9673389792
ltibia  -0 0 57.0284996
lfoot  4.414088256e-032 -0.5202400088 -6.220200062
ltoes  -4.250644065 -19.5611806 -102.515957
95
root  7.376933661 38.59644312 -0.110181333 178.8209839 -65.92120361 172.4550171
lowerback  12.90779972 3.673559904 -0.01093049999
upperback  3.577549934 4.736120224 1.406530023
thorax  -3.579200029 2.265470028 0.7300660014
lowerneck  -7.969860077 8.66724968 0.02080800012
upperneck  18.60910034 11.35599995 1.498370051
head  6.903369904 5.484839916 1.391420007
lclavicle  0 -9.442270133e-015 7.951389973e-016
lhumerus  -10.52130032 -7.768839836 71.40390015
lradius  2.413354983e-031 -2.577704747e-031 133.1139984
lwrist  -7.062250077e-031 -1.765562519e-031 13.61690044
lhand  -1.496451383e-031 -27.76390076 20.11240005
lfingers  90 7.125020027 -90
lthumb  89.89689403 5.08795885 91.16245106
rclavicle  0 -9.442270133e-015 7.951389973e-016
rhumerus  10.35359955 34.42900085 -78.09470367
rradius  -1.756106995e-031 3.06348368e-031 119.822998
rwrist  7.062250077e-031 -1.765562519e-031 -8.148400307
rhand  -7.920061211e-032 -33.2840004 9.303460121
rfingers  -90 -7.125020027 -90
rthumb  -92.93752616 -24.25625642 -97.11982154
rfemur  -15.17580032 6.749149799 -0.05695559829
rtibia  -0 0 68.07119751
rfoot  -4.557942473e-032 -14.44239998 1.964650035
rtoes  5.373923086 19.29304026 -105.8922705
lfemur  -22.04859924 3.652879953 -0.56645298
ltibia  -0 0 57.08499908
lfoot  4.414991005e-032 -1.270099998 -5.854979992
ltoes  -4.250644065 -19.5611806 -102.515957
96
root  7.206777888 38.4482226 -0.04037799915 179.7280273 -65.91200256 170.9169922
lowerback  12.56840038 3.636739969 0.006491200067
upperback  3.616430044 4.659200191 0.5832880139
thorax  -3.281670094 2.232280016 -0.09759060293
lowerneck  -8.010149956 8.828889847 0.04842219874
upperneck  18.66640091 11.47749996 2.003309965
head  6.897170067 5.586919785 1.556949973
lclavicle  0 -9.442270133e-015 7.951389973e-016
lhumerus  -10.11200047 -8.648590088 71.33719635
lradius  2.402897921e-031 -2.587455433e-031 132.8820038
lwrist  -1.412450015e-030 -1.765562519e-031 13.2123003
lhand  -1.496451383e-031 -27.76390076 20.11240005
lfingers  90 7.125020027 -90
lthumb  89.89689403 5.08795885 91.16245106
rclavicle  0 -9.442270133e-015 7.951389973e-016
rhumerus  10.51659966 33.88479996 -78.75610352
rradius  -1.736287664e-031 3.074760021e-031 119.4530029
rwrist  7.062250077e-031 -3.531125038e-031 -7.967979908
rhand  -7.920061211e-032 -33.2840004 9.303460121
rfingers  -90 -7.125020027 -90
rthumb  -92.93752616 -24.25625642 -97.11982154
rfemur  -14.69260025 7.032599926 -0.4193640053
rtibia  -0 0 69.03160095
rfoot  -4.56303436e-032 -14.68859959 3.536360025
rtoes  5.373923086 19.29304026 -105.8922705
lfemur  -21.34469986 2.293489933 -0.8006590009
ltibia  -0 0 56.8594017
lfoot  8.832091942e-032 -1.783660054 -5.589869976
ltoes  -4.250644065 -19.5611806 -102.515957
97
root  7.02393299 38.28355684 0.008050933128 -178.8079834 -65.99790192 168.5310059
lowerback  12.39089966 3.813640118 -1.137989998
upperback  3.637020111 4.741930008 0.2628389895
thorax  -3.229229927 2.277499914 0.2058809996
lowerneck  -7.9646101 8.908060074 0.04857600108
upperneck  18.99790001 11.61730003 1.812260032
head  7.007589817 5.626930237 1.517510056
lclavicle  0 -9.442270133e-015 7.951389973e-016
lhumerus  -10.03740025 -9.533809662 72.40170288
lradius  2.388454824e-031 -2.600793646e-031 132.5630035
lwrist  -7.062250077e-031 -3.531125038e-031 12.79209995
lhand  -1.496451383e-031 -27.76390076 20.11240005
lfingers  90 7.125020027 -90
lthumb  89.89689403 5.08795885 91.16245106
rclavicle  0 -9.442270133e-015 7.951389973e-016
rhumerus  10.42249966 33.56330109 -78.53140259
rradius  -1.716718486e-031 3.085728711e-031 119.0889969
rwrist  1.412450015e-030 -0 -7.714099884
rhand  -7.920061211e-032 -33.2840004 9.303460121
rfingers  -90 -7.125020027 -90
rthumb  -92.93752616 -24.25625642 -97.11982154
rfemur  -13.71420002 7.518529892 -1.054139972
rtibia  -0 0 69.71659851
rfoot  -4.565300323e-032 -14.79669952 4.917449951
rtoes  5.373923086 19.29304026 -105.8922705
lfemur  -20.3253994 0.7519980073 -1.456529975
ltibia  -0 0 56.38150024
lfoot  8.833093816e-032 -1.981389999 -5.458909988
ltoes  -4.250644065 -19.5611806 -102.515957
98
root  6.833622399 38.07644581 0.04869333402 -178.3079834 -66.00250244 167.2009888
lowerback  12.22599983 3.929100037 -1.741000056
upperback  3.557329893 4.815229893 -0.06752339751
thorax  -3.244349957 2.317929983 0.1950220019
lowerneck  -7.822720051 9.051460266 0.3279519975
upperneck  19.3295002 11.82369995 1.504969954
head  7.127120018 5.706470013 1.400480032
lclavicle  0 -9.442270133e-015 7.951389973e-016
lhumerus  -10.14080048 -10.31610012 73.26789856
lradius  2.373891742e-031 -2.614092966e-031 132.2429962
lwrist  -7.062250077e-031 -0 12.69900036
lhand  -1.496451383e-031 -27.76390076 20.11240005
lfingers  90 7.125020027 -90
lthumb  89.89689403 5.08795885 91.16245106
rclavicle  0 -9.442270133e-015 7.951389973e-016
rhumerus  10.15429974 33.3932991 -78.55840302
rradius  -1.692755047e-031 3.098939236e-031 118.6449966
rwrist  0 -0 -7.351130009
rhand  -7.920061211e-032 -33.2840004 9.303460121
rfingers  -90 -7.125020027 -90
rthumb  -92.93752616 -24.25625642 -97.11982154
rfemur  -12.60400009 8.365440369 -1.037170053
rtibia  -0 0 70.05339813
rfoot  -4.560567481e-032 -14.56989956 5.876150131
rtoes  5.373923086 19.29304026 -105.8922705
lfemur  -19.20879936 -0.6000660062 -1.694129944
ltibia  -0 0 55.70660019
lfoot  4.416029012e-032 -1.776579976 -5.463940144
ltoes  -4.250644065 -19.5611806 -102.515957
99
root  6.630355354 37.83711111 0.09203911062 -178.3829956 -65.91100311 166.6290283
lowerback  11.85210037 4.013510227 -1.99901998
upperback  3.420609951 4.903240204 -0.3426100016
thorax  -3.182110071 2.367460012 0.06009490043
lowerneck  -7.899740219 9.207409859 0.3052969873
upperneck  19.8307991 11.99969959 1.697450042
head  7.288579941 5.790609837 1.499189973
lclavicle  0 -9.442270133e-015 7.951389973e-016
lhumerus  -10.28810024 -10.87619972 74.02610016
lradius  2.35696151e-031 -2.629368076e-031 131.8730011
lwrist  -1.412450015e-030 1.765562519e-031 12.8597002
lhand  -1.496451383e-031 -27.76390076 20.11240005
lfingers  90 7.125020027 -90
lthumb  89.89689403 5.08795885 91.16245106
rclavicle  0 -9.442270133e-015 7.951389973e-016
rhumerus  9.729829788 33.36429977 -78.65859985
rradius  -1.664017153e-031 3.114464794e-031 118.1149979
rwrist  7.062250077e-031 1.765562519e-031 -7.122449875
rhand  -7.920061211e-032 -33.2840004 9.303460121
rfingers  -90 -7.125020027 -90
rthumb  -92.93752616 -24.25625642 -97.11982154
rfemur  -11.48209953 9.440210342 -0.6012979746
rtibia  -0 0 70.01460266
rfoot  -0 -13.94719982 6.69633007
rtoes  5.373923086 19.29304026 -105.8922705
lfemur  -18.09519958 -1.801139951 -1.656469941
ltibia  -0 0 54.89149857
lfoot  4.414979181e-032 -1.26315999 -5.539340019
ltoes  -4.250644065 -19.5611806 -102.515957
100
root  6.401800171 37.58755481 0.145553334 -178.2550049 -65.90529633 165.9039917
lowerback  11.22529984 4.082509995 -2.3067801
upperback  3.313189983 4.979979992 -0.5562520027
thorax  -2.960129976 2.411639929 0.03822509944
lowerneck  -8.194939613 9.30368042 -0.03563850001
upperneck  20.43549919 12.09189987 2.165770054
head  7.483250141 5.834660053 1.741340041
lclavicle  0 -9.442270133e-015 7.951389973e-016
lhumerus  -10.33320045 -11.3448 74.98390198
lradius  2.334157949e-031 -2.649632183e-031 131.378006
lwrist  -7.062250077e-031 -0 12.9623003
lhand  -1.496451383e-031 -27.76390076 20.11240005
lfingers  90 7.125020027 -90
lthumb  89.89689403 5.08795885 91.16245106
rclavicle  0 -9.442270133e-015 7.951389973e-016
rhumerus  9.213870049 33.42150116 -78.61740112
rradius  -1.631694801e-031 3.131519777e-031 117.5220032
rwrist  1.412450015e-030 -0 -6.655320168
rhand  -7.920061211e-032 -33.2840004 9.303460121
rfingers  -90 -7.125020027 -90
rthumb  -92.93752616 -24.25625642 -97.11982154
rfemur  -10.05210018 10.44970036 -0.1785330027
rtibia  -0 0 69.60639954
rfoot  -0 -13.37730026 7.506609917
rtoes  5.373923086 19.29304026 -105.8922705
lfemur  -16.97940063 -3.155100107 -1.751170039
ltibia  -0 0 54.03079987
lfoot  4.415107286e-032 -1.336429954 -5.50109005
ltoes  -4.250644065 -19.5611806 -102.515957
101
root  6.151911217 37.32088945 0.2019015588 -178.1409912 -65.96399689 165.223999
lowerback  10.35840034 4.142920017 -2.595479965
upperback  3.226429939 5.065189838 -0.7207909822
thorax  -2.587589979 2.459619999 0.07550919801
lowerneck  -8.489239693 9.395359993 -0.4063790143
upperneck  20.93230057 12.20030022 2.565109968
head  7.644730091 5.881410122 1.965610027
lclavicle  0 -9.442270133e-015 7.951389973e-016
lhumerus  -10.34809971 -11.83699989 76.15350342
lradius  2.309222214e-031 -2.671392297e-031 130.8410034
lwrist  -7.062250077e-031 -3.531125038e-031 12.81270027
lhand  -1.496451383e-031 -27.76390076 20.11240005
lfingers  90 7.125020027 -90
lthumb  89.89689403 5.08795885 91.16245106
rclavicle  0 -9.442270133e-015 7.951389973e-016
rhumerus  8.395409584 33.09939957 -79.1568985
rradius  -1.603811069e-031 3.145891621e-031 117.0130005
rwrist  7.062250077e-031 -1.765562519e-031 -6.155940056
rhand  -7.920061211e-032 -33.2840004 9.303460121
rfingers  -90 -7.125020027 -90
rthumb  -92.93752616 -24.25625642 -97.11982154
rfemur  -8.307149887 11.21800041 0.2788060009
rtibia  -0 0 69.04309845
rfoot  -4.593889103e-032 -16.09129906 6.367790222
rtoes  5.373923086 19.29304026 -105.8922705
lfemur  -15.80430031 -4.749599934 -1.827520013
ltibia  -0 0 53.2840004
lfoot  4.419970701e-032 -3.001729965 -5.339620113
ltoes  -4.250644065 -19.5611806 -102.515957
